<svg fill="none" height="329" viewBox="0 0 758 329" width="758" xmlns="http://www.w3.org/2000/svg">
  <path
    d="M130 2.00398C67.8667 15.3373 19.7333 62.2706 3.2 125.871C0.4 136.404 0 140.804 0 163.204C0.133333 184.804 0.533333 190.271 2.93333 200.137C17.3333 256.937 59.2 302.404 113.467 319.871C130.133 325.204 138.533 326.271 170.4 327.204L198 327.871V251.204V174.537H213.067H228.267L243.067 228.804C251.2 258.804 258.533 284.937 259.467 287.204C260.933 291.071 261.067 290.937 264.4 279.204C266.133 272.537 273.2 246.537 279.867 221.204L292 175.204L307.733 174.804L323.333 174.404V251.204V327.871H342H360.667V252.137C360.667 210.537 361.2 175.871 361.733 175.071C363.2 172.804 410.533 174.937 417.733 177.604C434.533 183.871 447.2 200.137 452.8 222.537C455.2 232.404 455.333 271.204 452.8 281.204C448.4 299.471 435.867 317.337 423.2 323.604L418 326.137L422.133 327.071C424.4 327.471 439.733 327.871 456.133 327.871H486V252.137C486 210.537 486.533 175.871 487.067 175.071C487.733 174.137 495.467 173.871 512.667 174.537C542.667 175.737 546.8 176.937 558.667 188.004C568.133 196.937 574 207.471 577.467 222.004C580.667 234.937 580.667 269.071 577.6 281.737C572.8 300.937 562.267 316.137 548.667 323.337L542.667 326.537H650L757.333 326.404L744.933 321.871C720.8 313.204 702.4 298.137 692.4 279.204C686 266.804 683.733 257.337 681.333 232.937C679.067 209.337 677.2 202.004 669.6 187.204C663.2 174.671 647.2 157.871 634.933 150.671C605.2 133.204 567.2 133.204 537.467 150.537C532.4 153.471 528 155.871 527.467 155.871C526.933 155.871 525.2 151.204 523.467 145.471C509.867 99.0706 476.533 63.4706 432.133 48.004C389.2 32.9373 347.333 38.2706 302.667 64.5373L298.533 66.9373L284.667 52.5373C267.333 34.6706 253.333 24.1373 236 15.8706C209.067 3.07061 194 -0.129357 161.6 0.00397585C147.333 0.00397585 135.333 0.803976 130 2.00398ZM97.4667 34.6706C98.8 36.804 96.2667 38.6706 89.8667 40.004C73.3333 43.7373 50.8 60.2706 39.4667 77.0706C25.3333 97.8706 18.8 118.004 16.8 146.537C16.1333 157.604 15.7333 159.204 13.4667 159.604C11.0667 160.137 10.9333 159.471 11.7333 145.071C14.6667 92.004 43.7333 49.2039 86 35.7373C94.8 32.9373 96.2667 32.804 97.4667 34.6706ZM407.067 48.1373C407.467 50.2706 406 50.5373 391.6 50.5373C366.133 50.5373 340.533 56.5373 322.133 66.804C315.467 70.5373 311.333 70.9373 311.333 67.8706C311.333 67.204 316 64.2706 321.733 61.3373C345.2 49.6039 364 45.2039 389.333 45.6039C404.667 45.8706 406.667 46.1373 407.067 48.1373ZM688.933 288.804C693.333 296.271 706.133 309.071 712 311.871C718.133 314.804 719.467 316.804 716 318.004C712.8 319.204 700.8 311.737 694.533 304.537C686 294.937 681.6 288.271 682.667 286.671C684.133 284.137 686.667 285.071 688.933 288.804Z"
    fill="#7451EB"/>
  <path
    d="M97.4667 34.6706C98.8 36.804 96.2667 38.6706 89.8667 40.004C73.3333 43.7373 50.8 60.2706 39.4667 77.0706C25.3333 97.8706 18.8 118.004 16.8 146.537C16.1333 157.604 15.7333 159.204 13.4667 159.604C11.0667 160.137 10.9333 159.471 11.7333 145.071C14.6667 92.004 43.7333 49.2039 86 35.7373C94.8 32.9373 96.2667 32.804 97.4667 34.6706Z"
    fill="white"/>
  <path
    d="M407.067 48.1373C407.467 50.2706 406 50.5373 391.6 50.5373C366.133 50.5373 340.533 56.5373 322.133 66.804C315.467 70.5373 311.333 70.9373 311.333 67.8706C311.333 67.204 316 64.2706 321.733 61.3373C345.2 49.6039 364 45.2039 389.333 45.6039C404.667 45.8706 406.667 46.1373 407.067 48.1373Z"
    fill="white"/>
  <path
    d="M688.933 288.804C693.333 296.271 706.133 309.071 712 311.871C718.133 314.804 719.467 316.804 716 318.004C712.8 319.204 700.8 311.737 694.533 304.537C686 294.937 681.6 288.271 682.667 286.671C684.133 284.137 686.667 285.071 688.933 288.804Z"
    fill="white"/>
  <path
    d="M382 251.871V310.937L394.133 310.004C408.133 308.937 414.133 306.537 420.533 299.071C429.467 288.937 433.333 274.804 433.333 251.871C433.333 228.937 429.467 214.804 420.533 204.671C414.133 197.204 408.133 194.804 394.133 193.737L382 192.804V251.871Z"
    fill="#7451EB"/>
  <path
    d="M507.333 251.871V310.937L518.8 310.004C536.933 308.671 544.933 303.737 551.467 290.004C557.2 278.004 558.4 269.871 557.733 247.337C557.2 230.537 556.667 226.004 554.133 219.471C547.2 201.871 537.867 194.937 518.933 193.604L507.333 192.804V251.871Z"
    fill="#7451EB"/>
  <path
    d="M218.133 269.071L218 328.271L232.667 327.604C240.8 327.204 247.867 326.537 248.267 326.004C249.067 325.337 231.2 255.737 221.333 221.204L218.133 209.871V269.071Z"
    fill="#7451EB"/>
  <path
    d="M289.733 254.537C272.133 320.137 270.8 325.204 271.733 326.004C272.133 326.537 279.467 327.204 288 327.604L303.333 328.271L303.2 275.071C303.2 245.871 302.8 219.471 302.267 216.537C301.333 211.737 300.133 215.604 289.733 254.537Z"
    fill="#7451EB"/>
</svg>
